<?xml version="1.0" standalone="no"?>
<!DOCTYPE svg PUBLIC "-//W3C//DTD SVG 20010904//EN"
 "http://www.w3.org/TR/2001/REC-SVG-20010904/DTD/svg10.dtd">
<svg version="1.0" xmlns="http://www.w3.org/2000/svg"
 width="920.000000pt" height="920.000000pt" viewBox="0 0 920.000000 920.000000"
 preserveAspectRatio="xMidYMid meet">

<g transform="translate(0.000000,920.000000) scale(0.100000,-0.100000)"
fill="#000000" stroke="none">
<path d="M2320 7468 c-131 -10 -238 -53 -353 -144 -103 -81 -199 -236 -228
-369 -10 -48 -13 -514 -12 -2360 0 -2564 -6 -2363 69 -2505 70 -134 160 -224
294 -294 143 -76 -75 -69 2510 -69 2166 0 2319 1 2379 17 229 62 416 248 477
476 16 61 17 206 17 2380 0 2178 -1 2319 -17 2380 -20 73 -69 171 -121 242
-74 101 -233 203 -370 238 -40 10 -507 13 -2305 14 -1240 1 -2293 -2 -2340 -6z
m4385 -693 c36 -22 57 -45 77 -84 l28 -53 0 -377 0 -377 -27 -55 c-19 -35 -43
-64 -71 -84 l-44 -30 -386 -3 c-264 -2 -399 0 -425 8 -21 6 -56 27 -77 46 -70
64 -71 70 -68 511 l3 391 30 44 c20 28 49 53 85 71 l55 28 386 -3 386 -3 48
-30z m-1824 -1108 c381 -100 683 -402 787 -786 23 -87 26 -114 26 -281 1 -172
-1 -192 -26 -283 -108 -387 -407 -684 -787 -784 -118 -31 -326 -42 -452 -24
-422 62 -786 390 -896 810 -37 141 -43 356 -13 500 89 432 420 767 851 861
137 29 374 23 510 -13z m-2002 -659 c-41 -143 -59 -421 -40 -595 103 -906 855
-1583 1761 -1583 595 0 1142 293 1473 788 137 204 226 426 273 682 26 137 26
459 0 590 -10 52 -21 107 -23 123 l-5 27 246 0 246 0 0 -1239 0 -1239 -28 -53
c-20 -39 -41 -62 -77 -84 l-48 -30 -2056 0 -2056 0 -47 28 c-31 18 -57 44 -75
75 l-28 47 -3 1248 -2 1247 249 0 250 0 -10 -32z"/>
</g>
</svg>
