<svg xmlns="http://www.w3.org/2000/svg" xmlns:xlink="http://www.w3.org/1999/xlink" width="1024" zoomAndPan="magnify" viewBox="0 0 768 767.999994" height="1024" preserveAspectRatio="xMidYMid meet" version="1.0"><path fill="#000000" d="M 753.089844 325.429688 L 407.144531 14.078125 C 406.359375 13.371094 405.542969 12.703125 404.695312 12.070312 C 403.847656 11.4375 402.972656 10.847656 402.070312 10.292969 C 401.171875 9.742188 400.246094 9.230469 399.296875 8.765625 C 398.347656 8.296875 397.382812 7.875 396.394531 7.496094 C 395.40625 7.117188 394.40625 6.785156 393.386719 6.496094 C 392.371094 6.210938 391.34375 5.96875 390.304688 5.777344 C 389.261719 5.585938 388.21875 5.441406 387.164062 5.34375 C 386.113281 5.246094 385.058594 5.199219 384 5.199219 C 382.941406 5.199219 381.886719 5.246094 380.835938 5.34375 C 379.78125 5.441406 378.738281 5.585938 377.695312 5.777344 C 376.65625 5.96875 375.628906 6.210938 374.613281 6.496094 C 373.59375 6.785156 372.59375 7.117188 371.605469 7.496094 C 370.617188 7.875 369.652344 8.296875 368.703125 8.765625 C 367.753906 9.230469 366.828125 9.742188 365.929688 10.292969 C 365.027344 10.847656 364.152344 11.4375 363.304688 12.070312 C 362.457031 12.703125 361.640625 13.371094 360.855469 14.078125 L 14.910156 325.429688 C 14.09375 326.195312 13.316406 327 12.578125 327.839844 C 11.839844 328.679688 11.144531 329.554688 10.488281 330.460938 C 9.835938 331.367188 9.226562 332.304688 8.664062 333.273438 C 8.101562 334.238281 7.585938 335.230469 7.121094 336.25 C 6.652344 337.265625 6.238281 338.300781 5.871094 339.359375 C 5.503906 340.417969 5.191406 341.488281 4.929688 342.578125 C 4.667969 343.664062 4.457031 344.761719 4.304688 345.871094 C 4.148438 346.976562 4.046875 348.089844 4 349.207031 C 3.949219 350.328125 3.957031 351.445312 4.019531 352.5625 C 4.078125 353.679688 4.195312 354.789062 4.363281 355.894531 C 4.53125 357 4.753906 358.097656 5.027344 359.179688 C 5.304688 360.265625 5.628906 361.335938 6.007812 362.386719 C 6.386719 363.441406 6.816406 364.472656 7.296875 365.484375 C 7.773438 366.492188 8.300781 367.480469 8.875 368.4375 C 9.449219 369.398438 10.070312 370.328125 10.734375 371.230469 C 11.398438 372.128906 12.105469 372.996094 12.851562 373.828125 C 13.601562 374.65625 14.386719 375.449219 15.214844 376.207031 C 16.039062 376.960938 16.898438 377.675781 17.792969 378.347656 C 18.6875 379.015625 19.613281 379.644531 20.570312 380.226562 C 21.527344 380.808594 22.507812 381.34375 23.515625 381.828125 C 24.523438 382.316406 25.550781 382.753906 26.601562 383.140625 C 27.648438 383.527344 28.714844 383.859375 29.796875 384.144531 C 30.878906 384.425781 31.972656 384.65625 33.078125 384.835938 C 34.183594 385.011719 35.292969 385.136719 36.410156 385.207031 C 37.527344 385.273438 38.644531 385.289062 39.761719 385.25 C 40.878906 385.214844 41.992188 385.121094 43.101562 384.972656 C 44.210938 384.828125 45.3125 384.625 46.402344 384.371094 C 47.492188 384.121094 48.566406 383.8125 49.625 383.457031 C 50.683594 383.097656 51.726562 382.691406 52.746094 382.230469 C 53.765625 381.773438 54.761719 381.265625 55.734375 380.710938 C 56.703125 380.15625 57.648438 379.554688 58.558594 378.90625 C 59.472656 378.261719 60.351562 377.570312 61.199219 376.839844 L 384 86.3125 L 706.800781 376.90625 C 707.648438 377.640625 708.527344 378.328125 709.441406 378.976562 C 710.351562 379.621094 711.296875 380.222656 712.265625 380.777344 C 713.238281 381.335938 714.234375 381.839844 715.253906 382.300781 C 716.273438 382.757812 717.316406 383.167969 718.375 383.523438 C 719.433594 383.882812 720.507812 384.1875 721.597656 384.441406 C 722.6875 384.695312 723.789062 384.894531 724.898438 385.042969 C 726.007812 385.1875 727.121094 385.28125 728.238281 385.320312 C 729.355469 385.359375 730.472656 385.34375 731.589844 385.273438 C 732.707031 385.203125 733.816406 385.082031 734.921875 384.902344 C 736.027344 384.726562 737.121094 384.496094 738.203125 384.214844 C 739.285156 383.929688 740.351562 383.59375 741.398438 383.207031 C 742.449219 382.820312 743.476562 382.382812 744.484375 381.898438 C 745.492188 381.410156 746.472656 380.875 747.429688 380.292969 C 748.386719 379.714844 749.308594 379.085938 750.207031 378.414062 C 751.101562 377.742188 751.960938 377.03125 752.785156 376.273438 C 753.609375 375.519531 754.398438 374.726562 755.148438 373.894531 C 755.894531 373.0625 756.601562 372.199219 757.265625 371.296875 C 757.929688 370.398438 758.550781 369.46875 759.125 368.507812 C 759.699219 367.546875 760.226562 366.5625 760.703125 365.550781 C 761.183594 364.539062 761.613281 363.507812 761.992188 362.457031 C 762.371094 361.402344 762.695312 360.335938 762.972656 359.25 C 763.246094 358.164062 763.46875 357.070312 763.636719 355.964844 C 763.804688 354.859375 763.921875 353.746094 763.980469 352.628906 C 764.042969 351.511719 764.046875 350.394531 764 349.277344 C 763.953125 348.160156 763.851562 347.046875 763.695312 345.9375 C 763.542969 344.832031 763.332031 343.734375 763.070312 342.644531 C 762.808594 341.558594 762.496094 340.484375 762.128906 339.429688 C 761.761719 338.371094 761.347656 337.335938 760.878906 336.316406 C 760.414062 335.300781 759.898438 334.308594 759.335938 333.34375 C 758.773438 332.375 758.164062 331.4375 757.511719 330.53125 C 756.855469 329.621094 756.160156 328.75 755.421875 327.910156 C 754.683594 327.066406 753.90625 326.265625 753.089844 325.5 Z M 753.089844 325.429688 " fill-opacity="1" fill-rule="nonzero"/><path fill="#000000" d="M 660.757812 420.324219 C 659.625 420.324219 658.492188 420.378906 657.367188 420.492188 C 656.238281 420.601562 655.117188 420.769531 654.007812 420.988281 C 652.894531 421.210938 651.796875 421.484375 650.714844 421.8125 C 649.628906 422.144531 648.566406 422.523438 647.519531 422.957031 C 646.472656 423.390625 645.449219 423.875 644.449219 424.410156 C 643.449219 424.941406 642.480469 425.523438 641.535156 426.15625 C 640.59375 426.785156 639.6875 427.457031 638.808594 428.175781 C 637.933594 428.894531 637.097656 429.65625 636.292969 430.457031 C 635.492188 431.257812 634.734375 432.097656 634.015625 432.972656 C 633.296875 433.847656 632.621094 434.757812 631.992188 435.699219 C 631.363281 436.640625 630.78125 437.613281 630.246094 438.609375 C 629.710938 439.609375 629.230469 440.632812 628.796875 441.679688 C 628.363281 442.726562 627.980469 443.792969 627.652344 444.875 C 627.324219 445.960938 627.046875 447.058594 626.828125 448.167969 C 626.605469 449.28125 626.441406 450.402344 626.328125 451.527344 C 626.21875 452.65625 626.160156 453.785156 626.160156 454.917969 L 626.160156 654.667969 C 626.160156 656.058594 626.09375 657.441406 625.953125 658.824219 C 625.816406 660.207031 625.613281 661.578125 625.339844 662.941406 C 625.070312 664.300781 624.730469 665.648438 624.328125 666.976562 C 623.925781 668.304688 623.457031 669.609375 622.925781 670.894531 C 622.390625 672.175781 621.800781 673.429688 621.144531 674.65625 C 620.488281 675.878906 619.773438 677.070312 619.003906 678.222656 C 618.230469 679.378906 617.40625 680.492188 616.523438 681.566406 C 615.644531 682.640625 614.710938 683.667969 613.730469 684.648438 C 612.746094 685.628906 611.71875 686.5625 610.644531 687.441406 C 609.574219 688.324219 608.457031 689.152344 607.304688 689.921875 C 606.148438 690.695312 604.960938 691.40625 603.734375 692.0625 C 602.511719 692.71875 601.257812 693.3125 599.972656 693.84375 C 598.691406 694.375 597.386719 694.84375 596.058594 695.246094 C 594.726562 695.652344 593.382812 695.988281 592.019531 696.261719 C 590.660156 696.53125 589.289062 696.738281 587.90625 696.875 C 586.523438 697.011719 585.136719 697.078125 583.75 697.082031 L 184.25 697.082031 C 182.863281 697.078125 181.476562 697.011719 180.09375 696.875 C 178.710938 696.738281 177.339844 696.53125 175.980469 696.261719 C 174.617188 695.988281 173.273438 695.652344 171.941406 695.246094 C 170.613281 694.84375 169.308594 694.375 168.027344 693.84375 C 166.742188 693.3125 165.488281 692.71875 164.265625 692.0625 C 163.039062 691.40625 161.851562 690.695312 160.695312 689.921875 C 159.542969 689.152344 158.425781 688.324219 157.355469 687.441406 C 156.28125 686.5625 155.253906 685.628906 154.269531 684.648438 C 153.289062 683.667969 152.355469 682.640625 151.476562 681.566406 C 150.59375 680.492188 149.769531 679.378906 148.996094 678.222656 C 148.222656 677.070312 147.511719 675.878906 146.855469 674.65625 C 146.199219 673.429688 145.609375 672.175781 145.074219 670.894531 C 144.542969 669.609375 144.074219 668.304688 143.671875 666.976562 C 143.269531 665.648438 142.929688 664.300781 142.660156 662.941406 C 142.386719 661.578125 142.183594 660.207031 142.046875 658.824219 C 141.90625 657.441406 141.839844 656.058594 141.835938 654.667969 L 141.835938 454.917969 C 141.835938 453.785156 141.78125 452.65625 141.671875 451.527344 C 141.558594 450.402344 141.394531 449.28125 141.171875 448.167969 C 140.953125 447.058594 140.675781 445.960938 140.347656 444.875 C 140.019531 443.792969 139.636719 442.726562 139.203125 441.679688 C 138.769531 440.632812 138.285156 439.609375 137.753906 438.609375 C 137.21875 437.613281 136.636719 436.640625 136.007812 435.699219 C 135.378906 434.757812 134.703125 433.847656 133.984375 432.972656 C 133.265625 432.097656 132.507812 431.257812 131.707031 430.457031 C 130.902344 429.65625 130.066406 428.894531 129.191406 428.175781 C 128.3125 427.457031 127.40625 426.785156 126.464844 426.15625 C 125.519531 425.523438 124.550781 424.941406 123.550781 424.410156 C 122.550781 423.875 121.527344 423.390625 120.480469 422.957031 C 119.433594 422.523438 118.371094 422.144531 117.285156 421.8125 C 116.203125 421.484375 115.105469 421.210938 113.992188 420.988281 C 112.882812 420.769531 111.761719 420.601562 110.632812 420.492188 C 109.507812 420.378906 108.375 420.324219 107.242188 420.324219 C 106.109375 420.324219 104.980469 420.378906 103.851562 420.492188 C 102.726562 420.601562 101.605469 420.769531 100.496094 420.988281 C 99.382812 421.210938 98.285156 421.484375 97.199219 421.8125 C 96.117188 422.144531 95.050781 422.523438 94.003906 422.957031 C 92.957031 423.390625 91.933594 423.875 90.933594 424.410156 C 89.9375 424.941406 88.964844 425.523438 88.023438 426.15625 C 87.082031 426.785156 86.171875 427.457031 85.296875 428.175781 C 84.421875 428.894531 83.582031 429.65625 82.78125 430.457031 C 81.980469 431.257812 81.21875 432.097656 80.5 432.972656 C 79.78125 433.847656 79.109375 434.757812 78.480469 435.699219 C 77.847656 436.640625 77.269531 437.613281 76.734375 438.609375 C 76.199219 439.609375 75.714844 440.632812 75.28125 441.679688 C 74.847656 442.726562 74.46875 443.792969 74.136719 444.875 C 73.808594 445.960938 73.535156 447.058594 73.3125 448.167969 C 73.09375 449.28125 72.925781 450.402344 72.816406 451.527344 C 72.703125 452.65625 72.648438 453.785156 72.648438 454.917969 L 72.648438 654.667969 C 72.648438 656.492188 72.695312 658.320312 72.789062 660.144531 C 72.878906 661.964844 73.015625 663.785156 73.195312 665.605469 C 73.375 667.421875 73.601562 669.230469 73.871094 671.039062 C 74.140625 672.84375 74.453125 674.644531 74.808594 676.433594 C 75.167969 678.222656 75.570312 680.003906 76.011719 681.777344 C 76.457031 683.546875 76.945312 685.304688 77.476562 687.054688 C 78.007812 688.800781 78.582031 690.53125 79.199219 692.25 C 79.8125 693.972656 80.472656 695.671875 81.171875 697.359375 C 81.871094 699.046875 82.613281 700.714844 83.394531 702.367188 C 84.175781 704.015625 84.996094 705.644531 85.855469 707.257812 C 86.71875 708.867188 87.617188 710.453125 88.558594 712.019531 C 89.496094 713.585938 90.472656 715.128906 91.488281 716.644531 C 92.503906 718.164062 93.554688 719.65625 94.644531 721.125 C 95.730469 722.589844 96.855469 724.027344 98.011719 725.441406 C 99.171875 726.851562 100.363281 728.234375 101.589844 729.585938 C 102.816406 730.9375 104.074219 732.261719 105.367188 733.550781 C 106.65625 734.84375 107.980469 736.101562 109.332031 737.328125 C 110.683594 738.554688 112.066406 739.746094 113.480469 740.90625 C 114.890625 742.066406 116.328125 743.1875 117.796875 744.277344 C 119.261719 745.363281 120.753906 746.414062 122.273438 747.429688 C 123.789062 748.445312 125.332031 749.421875 126.898438 750.359375 C 128.464844 751.300781 130.050781 752.199219 131.664062 753.0625 C 133.273438 753.921875 134.902344 754.746094 136.554688 755.527344 C 138.203125 756.308594 139.871094 757.046875 141.558594 757.746094 C 143.246094 758.445312 144.949219 759.105469 146.667969 759.71875 C 148.386719 760.335938 150.117188 760.910156 151.867188 761.441406 C 153.613281 761.972656 155.371094 762.460938 157.144531 762.90625 C 158.914062 763.351562 160.695312 763.75 162.484375 764.109375 C 164.277344 764.464844 166.074219 764.78125 167.878906 765.050781 C 169.6875 765.316406 171.5 765.542969 173.316406 765.722656 C 175.132812 765.902344 176.953125 766.039062 178.777344 766.132812 C 180.601562 766.222656 182.425781 766.269531 184.25 766.269531 L 583.75 766.269531 C 585.574219 766.269531 587.398438 766.222656 589.222656 766.132812 C 591.046875 766.039062 592.867188 765.902344 594.683594 765.722656 C 596.5 765.542969 598.3125 765.316406 600.121094 765.050781 C 601.925781 764.78125 603.722656 764.464844 605.515625 764.109375 C 607.304688 763.75 609.085938 763.351562 610.855469 762.90625 C 612.628906 762.460938 614.386719 761.972656 616.132812 761.441406 C 617.882812 760.910156 619.613281 760.335938 621.332031 759.71875 C 623.050781 759.105469 624.753906 758.445312 626.441406 757.746094 C 628.128906 757.046875 629.796875 756.308594 631.445312 755.527344 C 633.097656 754.746094 634.726562 753.921875 636.335938 753.0625 C 637.949219 752.199219 639.535156 751.300781 641.101562 750.359375 C 642.667969 749.421875 644.210938 748.445312 645.726562 747.429688 C 647.246094 746.414062 648.738281 745.363281 650.203125 744.277344 C 651.671875 743.1875 653.109375 742.066406 654.519531 740.90625 C 655.933594 739.746094 657.3125 738.554688 658.667969 737.328125 C 660.019531 736.101562 661.34375 734.84375 662.632812 733.550781 C 663.925781 732.261719 665.183594 730.9375 666.410156 729.585938 C 667.636719 728.234375 668.828125 726.851562 669.988281 725.441406 C 671.144531 724.027344 672.269531 722.589844 673.355469 721.125 C 674.445312 719.65625 675.496094 718.164062 676.511719 716.644531 C 677.527344 715.128906 678.503906 713.585938 679.441406 712.019531 C 680.382812 710.453125 681.28125 708.867188 682.144531 707.257812 C 683.003906 705.644531 683.824219 704.015625 684.605469 702.367188 C 685.386719 700.714844 686.128906 699.046875 686.828125 697.359375 C 687.527344 695.671875 688.1875 693.972656 688.800781 692.25 C 689.417969 690.53125 689.992188 688.800781 690.523438 687.054688 C 691.054688 685.304688 691.542969 683.546875 691.984375 681.777344 C 692.429688 680.003906 692.832031 678.222656 693.191406 676.433594 C 693.546875 674.644531 693.859375 672.84375 694.128906 671.039062 C 694.398438 669.230469 694.625 667.421875 694.804688 665.605469 C 694.984375 663.785156 695.121094 661.964844 695.210938 660.144531 C 695.304688 658.320312 695.347656 656.492188 695.351562 654.667969 L 695.351562 454.917969 C 695.351562 453.785156 695.296875 452.65625 695.183594 451.527344 C 695.074219 450.402344 694.90625 449.28125 694.6875 448.167969 C 694.464844 447.058594 694.191406 445.960938 693.863281 444.875 C 693.53125 443.792969 693.152344 442.726562 692.71875 441.679688 C 692.285156 440.632812 691.800781 439.609375 691.265625 438.609375 C 690.730469 437.613281 690.152344 436.640625 689.519531 435.699219 C 688.890625 434.757812 688.21875 433.847656 687.5 432.972656 C 686.78125 432.097656 686.019531 431.257812 685.21875 430.457031 C 684.417969 429.65625 683.578125 428.894531 682.703125 428.175781 C 681.828125 427.457031 680.917969 426.785156 679.976562 426.15625 C 679.035156 425.523438 678.0625 424.941406 677.066406 424.410156 C 676.066406 423.875 675.042969 423.390625 673.996094 422.957031 C 672.949219 422.523438 671.882812 422.144531 670.800781 421.8125 C 669.714844 421.484375 668.617188 421.210938 667.503906 420.988281 C 666.394531 420.769531 665.273438 420.601562 664.148438 420.492188 C 663.019531 420.378906 661.890625 420.324219 660.757812 420.324219 Z M 660.757812 420.324219 " fill-opacity="1" fill-rule="nonzero"/></svg>