<svg xmlns="http://www.w3.org/2000/svg" xmlns:xlink="http://www.w3.org/1999/xlink" width="1024" zoomAndPan="magnify" viewBox="0 0 768 767.999994" height="1024" preserveAspectRatio="xMidYMid meet" version="1.0"><path fill="#000000" d="M 759.691406 558.777344 C 753.03125 535.015625 736.550781 515.085938 714.488281 504.066406 L 577.921875 435.769531 C 538.011719 415.816406 489.457031 428.992188 465.164062 466.550781 L 447.246094 494.246094 C 408.273438 478.050781 329.914062 433.757812 274.9375 325.410156 L 314.367188 290.578125 C 345.007812 263.507812 352.792969 217.945312 332.910156 182.230469 L 259.558594 50.644531 C 247.75 29.46875 227.484375 14.019531 203.960938 8.21875 C 180.386719 2.375 155.234375 6.6875 134.921875 20.03125 L 42.167969 80.898438 C 14.378906 99.082031 -0.902344 131.949219 3.191406 164.621094 C 18.070312 283.441406 105.21875 677.789062 601.566406 763.570312 C 606.5 764.433594 611.433594 764.863281 616.320312 764.863281 C 645.808594 764.863281 673.644531 749.652344 689.933594 723.734375 L 749.488281 629.0625 C 762.640625 608.175781 766.351562 582.566406 759.691406 558.777344 Z M 687.203125 589.898438 L 627.628906 684.566406 C 624.632812 689.335938 619.148438 692.015625 614.117188 691.058594 C 167.597656 613.875 89.503906 261.59375 76.207031 155.472656 C 75.585938 150.464844 78.027344 145.363281 82.507812 142.441406 L 175.261719 81.570312 C 178.015625 79.773438 180.746094 79.269531 182.949219 79.269531 C 184.339844 79.269531 185.515625 79.464844 186.375 79.679688 C 188.582031 80.207031 192.675781 81.835938 195.265625 86.480469 L 268.613281 218.066406 C 271.871094 223.886719 270.625 231.027344 265.644531 235.433594 L 205.539062 288.542969 C 193.5625 299.105469 189.800781 316.210938 196.175781 330.847656 C 284.566406 533.292969 447.535156 572.554688 454.410156 574.132812 C 469.523438 577.535156 485.121094 571.210938 493.503906 558.226562 L 526.96875 506.507812 C 530.851562 500.519531 538.585938 498.386719 545.007812 501.597656 L 681.597656 569.894531 C 686.4375 572.3125 688.210938 576.410156 688.832031 578.636719 C 689.457031 580.890625 690.078125 585.320312 687.203125 589.898438 Z M 687.203125 589.898438 " fill-opacity="1" fill-rule="nonzero"/></svg>