<svg xmlns="http://www.w3.org/2000/svg" xmlns:xlink="http://www.w3.org/1999/xlink" width="1024" zoomAndPan="magnify" viewBox="0 0 768 767.999994" height="1024" preserveAspectRatio="xMidYMid meet" version="1.0"><path fill="#000000" d="M 300.105469 528.785156 C 282.625 510.660156 273.714844 478.984375 273.285156 445.441406 L 234.425781 445.441406 C 234.425781 489.246094 247.878906 528.507812 269.875 551.054688 C 290.855469 572.527344 324.003906 585.429688 368.640625 590.285156 L 368.640625 660.480469 L 399.359375 660.480469 L 399.359375 591.789062 C 417.363281 591.789062 434.871094 589.394531 451.859375 584.601562 C 468.910156 579.808594 484.148438 572.46875 497.511719 562.605469 C 510.90625 552.804688 521.503906 540.671875 529.613281 526.203125 C 537.601562 511.734375 541.625 495.082031 541.625 476.222656 C 541.625 456.160156 537.476562 439.386719 529.304688 425.871094 C 521.042969 412.386719 510.257812 401.234375 496.925781 392.355469 C 483.53125 383.507812 468.296875 376.566406 451.246094 371.527344 C 434.257812 366.550781 416.960938 362.3125 399.390625 358.902344 L 399.390625 192.367188 C 426.453125 192.429688 448.328125 201 465.164062 218.082031 C 481.964844 235.222656 491.089844 262.964844 491.519531 291.839844 L 529.859375 291.839844 C 530.351562 272.976562 527.15625 251.105469 520.304688 235.746094 C 513.515625 220.324219 504.113281 207.113281 491.980469 196.148438 C 479.816406 185.148438 465.746094 176.671875 449.679688 170.679688 C 433.675781 164.75 416.933594 161.773438 399.328125 161.773438 L 399.328125 107.519531 L 368.609375 107.519531 L 368.609375 162.203125 C 352.972656 162.753906 338.164062 164.964844 324.433594 169.511719 C 308.828125 174.703125 295.15625 182.199219 283.390625 192.03125 C 271.6875 201.859375 262.441406 213.71875 255.683594 227.574219 C 248.894531 241.460938 245.484375 257.066406 245.484375 274.421875 C 245.484375 294.789062 249.015625 311.59375 255.988281 324.679688 C 262.933594 337.828125 272.300781 348.578125 284.066406 357.089844 C 295.773438 365.539062 309.566406 372.296875 325.355469 377.273438 C 339.179688 381.664062 353.742188 385.167969 368.609375 388.363281 L 368.609375 559.996094 C 339.425781 555.878906 316.386719 545.648438 300.105469 528.785156 Z M 399.359375 394.753906 C 411.21875 397.425781 423.230469 400.710938 435.546875 404.519531 C 447.835938 408.359375 458.957031 413.277344 468.789062 419.207031 C 478.679688 425.226562 486.789062 432.8125 493.179688 442.0625 C 499.570312 451.308594 502.761719 462.890625 502.761719 476.742188 C 502.761719 491.796875 499.8125 504.605469 493.824219 515.175781 C 487.894531 525.804688 480.03125 534.589844 470.355469 541.5 C 460.707031 548.445312 449.710938 553.453125 437.359375 556.554688 C 425.101562 559.625 412.445312 561.101562 399.390625 561.101562 L 399.390625 394.753906 Z M 341.453125 344.953125 C 330.546875 341.851562 320.871094 337.644531 312.421875 332.265625 C 304.035156 326.832031 297.246094 319.917969 292.117188 311.410156 C 286.957031 302.960938 284.40625 291.960938 284.40625 278.476562 C 284.40625 263.453125 286.742188 250.460938 291.503906 239.433594 C 296.234375 228.464844 302.835938 219.523438 311.253906 212.550781 C 319.640625 205.609375 329.320312 200.539062 340.222656 197.222656 C 349.164062 194.550781 358.75 193.230469 368.671875 192.769531 L 368.671875 351.988281 C 359.394531 349.746094 350.269531 347.472656 341.453125 344.953125 Z M 341.453125 344.953125 " fill-opacity="1" fill-rule="nonzero"/><path fill="#000000" d="M 384 768 C 596.058594 768 768 596.058594 768 384 C 768 171.941406 596.058594 0 384 0 C 171.941406 0 0 171.941406 0 384 C 0 596.058594 171.941406 768 384 768 Z M 384 30.71875 C 578.796875 30.71875 737.28125 189.171875 737.28125 384 C 737.28125 578.828125 578.796875 737.28125 384 737.28125 C 189.203125 737.28125 30.71875 578.828125 30.71875 384 C 30.71875 189.171875 189.203125 30.71875 384 30.71875 Z M 384 30.71875 " fill-opacity="1" fill-rule="nonzero"/></svg>