<svg xmlns="http://www.w3.org/2000/svg" xmlns:xlink="http://www.w3.org/1999/xlink" width="1024" zoomAndPan="magnify" viewBox="0 0 768 767.999994" height="1024" preserveAspectRatio="xMidYMid meet" version="1.0"><path fill="#000000" d="M 257.828125 10.878906 L 257.828125 176.367188 L 504.59375 423.222656 C 510.902344 429.714844 514.558594 438.398438 514.558594 447.453125 L 514.558594 747.886719 L 766.902344 747.886719 L 766.902344 10.878906 Z M 483.839844 237.347656 L 329.324219 237.347656 L 329.324219 99.109375 L 483.839844 99.109375 Z M 695.40625 612.480469 L 541.074219 612.480469 L 541.074219 474.238281 L 695.40625 474.238281 Z M 695.40625 237.347656 L 541.074219 237.347656 L 541.074219 99.109375 L 695.40625 99.109375 Z M 695.40625 237.347656 " fill-opacity="1" fill-rule="nonzero"/><path fill="#000000" d="M 1.097656 461.53125 L 1.097656 747.886719 L 97.738281 747.886719 L 97.738281 597.210938 C 97.738281 578.285156 113.003906 562.925781 132.023438 562.925781 L 314.972656 562.925781 C 333.988281 562.925781 349.347656 578.285156 349.347656 597.210938 L 349.347656 747.886719 L 445.898438 747.886719 L 445.898438 461.53125 L 223.542969 239.175781 Z M 1.097656 461.53125 " fill-opacity="1" fill-rule="nonzero"/><path fill="#000000" d="M 166.308594 631.589844 L 280.6875 631.589844 L 280.6875 747.886719 L 166.308594 747.886719 Z M 166.308594 631.589844 " fill-opacity="1" fill-rule="nonzero"/></svg>