<?xml version="1.0" standalone="no"?>
<!DOCTYPE svg PUBLIC "-//W3C//DTD SVG 20010904//EN"
 "http://www.w3.org/TR/2001/REC-SVG-20010904/DTD/svg10.dtd">
<svg version="1.0" xmlns="http://www.w3.org/2000/svg"
 width="1280.000000pt" height="1213.000000pt" viewBox="0 0 1280.000000 1213.000000"
 preserveAspectRatio="xMidYMid meet">
<g transform="translate(0.000000,1213.000000) scale(0.100000,-0.100000)"
fill="#000000" stroke="none">
<path d="M6376 11809 c-51 -139 -286 -891 -286 -913 0 -31 87 -379 114 -455
21 -58 22 -221 1 -260 -16 -31 -39 -41 -100 -41 -59 0 -116 31 -192 102 -90
84 -150 124 -247 165 -174 74 -335 100 -666 110 -440 12 -564 -19 -1475 -375
-478 -187 -646 -239 -858 -267 -211 -27 -337 -18 -464 33 -28 12 -73 24 -100
28 -42 5 -51 3 -76 -20 -32 -30 -34 -45 -8 -78 20 -25 73 -53 210 -109 92 -37
136 -72 147 -113 5 -21 -208 -620 -967 -2718 -535 -1480 -983 -2705 -994
-2722 -11 -17 -35 -36 -53 -42 -46 -15 -58 -29 -45 -56 26 -58 340 -374 527
-532 269 -227 641 -380 1119 -461 412 -70 847 -57 1223 34 425 104 804 282
1084 508 146 118 420 424 420 469 0 8 -12 16 -27 20 -72 15 -108 31 -126 55
-26 36 -1958 5322 -1963 5374 -8 70 -12 69 222 56 115 -6 313 -14 439 -17 258
-7 278 -5 765 72 400 63 494 70 731 56 265 -16 370 -42 482 -119 78 -54 170
-203 233 -378 l32 -90 363 -5 364 -5 -2 -120 c-4 -227 -33 -405 -148 -905
-107 -466 -130 -598 -145 -840 -14 -240 -12 -340 10 -517 27 -208 80 -432 147
-623 109 -311 124 -386 124 -620 0 -280 -34 -474 -140 -802 -113 -349 -144
-533 -143 -853 0 -312 23 -462 152 -1014 32 -140 56 -260 52 -267 -4 -6 -31
-30 -59 -53 -149 -117 -224 -290 -224 -521 0 -131 12 -184 72 -302 72 -143 72
-221 2 -299 -100 -110 -371 -200 -690 -228 -241 -22 -443 -11 -828 44 -446 64
-737 67 -959 10 -279 -70 -355 -188 -356 -548 0 -186 5 -202 86 -287 l57 -60
3197 0 3197 0 21 23 c31 33 71 126 88 209 22 100 14 300 -14 379 -42 118 -101
181 -220 236 -228 105 -562 117 -1047 38 -375 -62 -548 -74 -850 -57 -172 9
-185 11 -305 52 -221 73 -399 169 -440 234 -41 67 -19 186 55 302 58 90 76
153 76 266 0 204 -59 336 -218 494 -40 40 -73 80 -73 88 0 9 20 96 45 193 106
422 138 649 139 973 1 296 -20 451 -114 830 -113 457 -141 636 -141 910 -1
259 5 291 175 950 79 308 93 385 106 562 21 311 -22 606 -145 975 -137 410
-181 709 -156 1058 l6 90 355 5 354 5 61 135 c75 166 129 252 198 317 100 94
176 119 427 134 218 14 388 7 600 -26 437 -68 636 -95 727 -101 55 -4 241 -1
414 7 172 8 348 14 389 14 74 0 75 0 78 -27 2 -17 -356 -1026 -958 -2700 -529
-1470 -968 -2687 -975 -2705 -9 -20 -23 -34 -37 -37 -13 -3 -49 -10 -80 -16
-32 -6 -58 -16 -58 -22 0 -18 161 -188 290 -306 459 -420 908 -639 1482 -724
131 -19 193 -22 433 -22 247 0 296 3 415 23 648 111 1216 385 1571 759 104
110 214 256 204 272 -3 5 -20 10 -36 10 -48 0 -89 27 -109 73 -30 67 -1970
5416 -1970 5431 0 27 50 57 179 106 171 64 197 81 212 130 10 33 9 43 -6 66
-16 24 -21 26 -64 20 -25 -3 -93 -23 -151 -43 l-105 -36 -145 6 c-307 13 -443
52 -1200 345 -738 286 -878 320 -1285 309 -301 -9 -466 -36 -675 -114 -117
-43 -145 -60 -234 -140 -79 -71 -131 -100 -199 -109 -89 -13 -134 27 -144 130
-4 43 8 97 76 341 l81 290 -155 445 c-86 245 -160 449 -165 454 -6 6 -11 4
-14 -5z m-3015 -5180 c915 -2522 900 -2478 847 -2493 -13 -3 -795 -6 -1738 -6
-943 0 -1725 3 -1737 6 -13 4 -23 11 -23 16 0 12 1739 4846 1752 4872 7 12 13
15 20 8 5 -5 401 -1087 879 -2403z m7840 -40 c489 -1333 888 -2429 889 -2435
0 -7 -10 -14 -22 -18 -13 -3 -806 -6 -1764 -6 -1377 0 -1744 3 -1757 12 -15
12 -10 30 54 208 39 107 428 1187 866 2400 437 1213 801 2220 809 2238 7 19
19 32 26 30 6 -2 411 -1095 899 -2429z"/>
</g>
</svg>
