<svg xmlns="http://www.w3.org/2000/svg" xmlns:xlink="http://www.w3.org/1999/xlink" width="1024" zoomAndPan="magnify" viewBox="0 0 768 767.999994" height="1024" preserveAspectRatio="xMidYMid meet" version="1.0"><path fill="#545861" d="M 606.679688 694.660156 C 606.566406 694.59375 606.425781 694.574219 606.289062 694.609375 L 546.480469 710.929688 C 546.34375 710.96875 546.234375 711.054688 546.164062 711.171875 C 546.101562 711.289062 546.085938 711.429688 546.113281 711.558594 L 561.519531 768 L 562.578125 768 L 547.238281 711.785156 L 606.066406 695.734375 L 625.78125 768 L 626.839844 768 L 606.921875 694.96875 C 606.886719 694.839844 606.800781 694.730469 606.679688 694.660156 " fill-opacity="1" fill-rule="nonzero"/><path fill="#545861" d="M 59.886719 81.730469 C 60.054688 81.730469 60.21875 81.644531 60.316406 81.488281 L 92.335938 30.574219 L 158.621094 0 L 156.175781 0 L 93.335938 28.984375 L 111.566406 0 L 110.355469 0 L 91.628906 29.773438 L 66.625 41.304688 L 47.570312 0 L 46.441406 0 L 65.910156 42.199219 C 65.996094 42.386719 66.183594 42.496094 66.375 42.496094 C 66.445312 42.496094 66.519531 42.480469 66.589844 42.449219 L 90.628906 31.359375 L 59.726562 80.511719 L 0 42.953125 L 0 44.164062 L 59.613281 81.648438 C 59.695312 81.699219 59.789062 81.730469 59.886719 81.730469 " fill-opacity="1" fill-rule="nonzero"/><path fill="#545861" d="M 713.273438 8.539062 L 718.644531 0 L 717.433594 0 L 712.136719 8.429688 C 712.066406 8.546875 712.039062 8.679688 712.070312 8.816406 C 712.101562 8.945312 712.183594 9.058594 712.296875 9.136719 L 768 44.164062 L 768 42.953125 L 713.273438 8.539062 " fill-opacity="1" fill-rule="nonzero"/><path fill="#545861" d="M 754.285156 62.191406 C 754.15625 62.175781 754.019531 62.21875 753.914062 62.308594 L 715.925781 94.699219 L 668.554688 56.480469 L 689.148438 0 L 688.066406 0 L 667.710938 55.800781 L 634.925781 29.355469 L 626.914062 0 L 625.855469 0 L 633.566406 28.253906 L 616.335938 14.355469 C 616.230469 14.269531 616.09375 14.226562 615.960938 14.246094 C 615.824219 14.261719 615.699219 14.324219 615.613281 14.429688 L 578.980469 59.839844 L 562.660156 0 L 561.59375 0 L 578.191406 60.824219 L 552.726562 92.386719 L 440.730469 51.539062 L 459.53125 0 L 458.433594 0 L 439.589844 51.664062 C 439.546875 51.796875 439.550781 51.933594 439.605469 52.058594 C 439.664062 52.179688 439.769531 52.28125 439.898438 52.324219 L 552.046875 93.230469 L 520.964844 131.753906 C 520.789062 131.976562 520.824219 132.300781 521.046875 132.476562 L 598.421875 194.898438 L 578.570312 211.824219 L 454.128906 89.636719 C 453.929688 89.433594 453.605469 89.433594 453.40625 89.640625 L 440.785156 102.488281 L 385.875 0 L 384.714844 0 L 440.035156 103.261719 L 352.023438 192.890625 L 320.554688 134.15625 L 384.328125 79.769531 C 384.546875 79.589844 384.570312 79.265625 384.390625 79.050781 L 316.984375 0 L 315.640625 0 L 383.28125 79.324219 L 320.058594 133.234375 L 248.675781 0 L 247.515625 0 L 319.261719 133.910156 L 283.171875 164.683594 L 192.75 76.199219 C 192.546875 76 192.21875 76.003906 192.023438 76.203125 L 117.710938 152.144531 L 84.734375 113.476562 L 217.808594 0 L 216.234375 0 L 83.679688 113.03125 C 83.574219 113.113281 83.511719 113.246094 83.5 113.378906 C 83.488281 113.515625 83.535156 113.644531 83.625 113.75 L 116.988281 152.878906 L 74.203125 196.605469 L 25.78125 157.535156 L 49.734375 137.105469 C 49.839844 137.019531 49.90625 136.890625 49.914062 136.753906 C 49.925781 136.621094 49.878906 136.488281 49.796875 136.386719 L 0 77.988281 L 0 79.566406 L 48.679688 136.660156 L 24.96875 156.878906 L 0 136.738281 L 0 138.054688 L 24.175781 157.558594 L 0 178.171875 L 0 179.515625 L 24.984375 158.214844 L 73.484375 197.339844 L 0 272.429688 L 0 273.894531 L 74.285156 197.984375 L 99.054688 217.964844 L 5.039062 334.488281 L 0 330.421875 L 0 331.738281 L 4.800781 335.609375 C 4.894531 335.683594 5.011719 335.71875 5.121094 335.71875 C 5.269531 335.71875 5.414062 335.65625 5.519531 335.53125 L 100.171875 218.210938 C 100.253906 218.105469 100.296875 217.96875 100.28125 217.835938 C 100.269531 217.699219 100.199219 217.574219 100.09375 217.488281 L 75.003906 197.25 L 117.65625 153.664062 L 193.109375 242.15625 C 193.214844 242.269531 193.359375 242.328125 193.503906 242.328125 C 193.621094 242.328125 193.734375 242.289062 193.835938 242.210938 L 283.125 166.070312 L 305.726562 188.183594 L 151.871094 345.398438 L 98.378906 312.46875 C 98.140625 312.324219 97.824219 312.398438 97.675781 312.640625 L 26.691406 427.953125 L 0 401.835938 L 0 403.269531 L 26.140625 428.84375 L 0 471.308594 L 0 473.265625 L 26.890625 429.578125 L 49.015625 451.234375 C 49.113281 451.335938 49.246094 451.378906 49.375 451.378906 C 49.503906 451.378906 49.640625 451.328125 49.738281 451.226562 L 152.03125 346.699219 L 190.878906 370.613281 L 123.761719 415.605469 C 123.644531 415.679688 123.570312 415.796875 123.546875 415.929688 C 123.515625 416.066406 123.546875 416.199219 123.621094 416.316406 L 152.664062 459.644531 L 31.035156 545.648438 L 0 526.539062 L 0 527.746094 L 30.125 546.289062 L 0 567.59375 L 0 568.851562 L 31.074219 546.875 L 72.429688 572.328125 L 0 687.511719 L 0 689.433594 L 73.300781 572.863281 L 149.046875 619.496094 L 0 724.878906 L 0 726.136719 L 149.996094 620.078125 L 188.433594 643.738281 L 163.046875 684.113281 L 158.160156 673.53125 C 158.046875 673.273438 157.738281 673.160156 157.480469 673.28125 L 30.359375 731.910156 C 30.234375 731.964844 30.140625 732.070312 30.089844 732.199219 C 30.046875 732.324219 30.050781 732.464844 30.109375 732.589844 L 46.445312 768 L 47.570312 768 L 31.25 732.625 L 157.449219 674.425781 L 162.394531 685.148438 L 110.296875 768 L 111.503906 768 L 162.90625 686.253906 L 192.824219 751.085938 L 156.15625 768 L 158.601562 768 L 193.714844 751.800781 C 193.839844 751.746094 193.933594 751.640625 193.984375 751.515625 C 194.03125 751.386719 194.023438 751.246094 193.964844 751.121094 L 163.554688 685.226562 L 189.304688 644.273438 L 257.269531 686.113281 L 216.066406 708.191406 C 215.945312 708.25 215.855469 708.359375 215.816406 708.488281 C 215.773438 708.621094 215.789062 708.761719 215.855469 708.878906 L 237.714844 749.675781 L 216.230469 768 L 217.804688 768 L 238.210938 750.601562 L 247.53125 768 L 248.691406 768 L 239.003906 749.921875 L 274.453125 719.691406 L 315.648438 768 L 316.988281 768 L 274.898438 718.636719 C 274.808594 718.535156 274.691406 718.46875 274.550781 718.460938 C 274.421875 718.449219 274.28125 718.496094 274.179688 718.578125 L 238.511719 749 L 217 708.851562 L 258.273438 686.734375 L 350.105469 743.261719 C 350.191406 743.308594 350.28125 743.335938 350.375 743.335938 C 350.546875 743.335938 350.714844 743.25 350.808594 743.089844 L 361.808594 725.226562 L 384.730469 768 L 385.890625 768 L 362.429688 724.214844 L 415.230469 638.449219 L 488.664062 685.078125 L 458.421875 768 L 459.511719 768 L 489.550781 685.640625 L 519.839844 704.875 C 519.925781 704.929688 520.019531 704.953125 520.113281 704.953125 C 520.285156 704.953125 520.449219 704.871094 520.550781 704.71875 L 553.550781 652.75 L 589.113281 674.183594 C 589.195312 674.230469 589.289062 674.253906 589.378906 674.253906 C 589.421875 674.253906 589.464844 674.25 589.503906 674.238281 C 589.636719 674.203125 589.746094 674.125 589.820312 674.011719 L 645.109375 582.253906 L 712.464844 606.820312 L 669.015625 637.550781 C 668.78125 637.710938 668.726562 638.03125 668.890625 638.261719 L 712.746094 700.28125 L 688.046875 768 L 689.136719 768 L 713.464844 701.300781 L 737.765625 735.660156 L 717.429688 768 L 718.640625 768 L 738.40625 736.570312 L 743.035156 743.121094 C 743.136719 743.261719 743.296875 743.335938 743.453125 743.335938 C 743.554688 743.335938 743.660156 743.304688 743.75 743.238281 L 768 726.09375 L 768 724.839844 L 743.574219 742.109375 L 738.996094 735.628906 L 768 689.503906 L 768 687.578125 L 738.355469 734.726562 L 713.890625 700.125 L 743.933594 617.753906 C 743.980469 617.625 743.976562 617.484375 743.921875 617.359375 C 743.859375 617.238281 743.761719 617.144531 743.628906 617.09375 L 714.65625 606.53125 L 768 568.808594 L 768 567.554688 L 713.484375 606.105469 L 645.648438 581.359375 L 703.695312 485.046875 C 703.84375 484.804688 703.765625 484.488281 703.523438 484.34375 L 672.40625 465.589844 L 695.015625 429.988281 C 695.089844 429.875 695.113281 429.734375 695.085938 429.605469 C 695.054688 429.46875 694.96875 429.355469 694.855469 429.285156 L 552.40625 338.824219 C 552.171875 338.675781 551.855469 338.746094 551.699219 338.980469 L 526.960938 377.941406 L 493.746094 357.921875 L 559.011719 291.453125 L 591.375 329.410156 C 591.460938 329.515625 591.589844 329.574219 591.71875 329.585938 C 591.734375 329.589844 591.75 329.589844 591.761719 329.589844 C 591.886719 329.589844 592.003906 329.546875 592.09375 329.464844 L 676.261719 257.699219 L 735.570312 305.550781 L 702.933594 338.898438 C 702.839844 338.996094 702.789062 339.125 702.789062 339.261719 C 702.789062 339.394531 702.84375 339.53125 702.945312 339.621094 L 768 403.285156 L 768 401.855469 L 704.023438 339.25 L 736.371094 306.195312 L 768 331.710938 L 768 330.394531 L 737.089844 305.460938 L 768 273.875 L 768 272.410156 L 736.289062 304.816406 L 677.054688 257.023438 L 768 179.476562 L 768 178.125 L 676.246094 256.371094 L 600.023438 194.875 L 715.945312 96.03125 L 768 138.03125 L 768 136.714844 L 716.734375 95.355469 L 754.191406 63.421875 L 768 79.621094 L 768 78.039062 L 754.640625 62.371094 C 754.550781 62.265625 754.425781 62.199219 754.285156 62.191406 Z M 193.558594 241.101562 L 118.375 152.929688 L 192.398438 77.289062 L 282.390625 165.355469 Z M 49.363281 450.144531 L 27.441406 428.683594 L 98.28125 313.613281 L 151.136719 346.148438 Z M 713.636719 607.25 L 742.800781 617.886719 L 713.171875 699.109375 L 670.019531 638.089844 Z M 616.089844 15.476562 L 634.023438 29.945312 L 643.28125 63.84375 L 584.453125 79.894531 L 579.316406 61.058594 Z M 578.523438 62.046875 L 583.601562 80.660156 C 583.636719 80.789062 583.71875 80.898438 583.839844 80.96875 C 583.921875 81.011719 584.003906 81.035156 584.09375 81.035156 C 584.140625 81.035156 584.183594 81.03125 584.230469 81.019531 L 644.039062 64.699219 C 644.171875 64.664062 644.285156 64.574219 644.351562 64.453125 C 644.414062 64.339844 644.433594 64.199219 644.398438 64.070312 L 635.386719 31.039062 L 667.339844 56.820312 L 642.429688 125.105469 L 553.746094 92.761719 Z M 440.539062 104.203125 L 483.574219 184.523438 L 377.878906 241.148438 L 352.523438 193.835938 Z M 152.765625 345.949219 L 306.808594 188.539062 C 306.90625 188.441406 306.960938 188.308594 306.960938 188.175781 C 306.960938 188.039062 306.898438 187.910156 306.804688 187.816406 L 283.90625 165.40625 L 319.753906 134.835938 L 351.269531 193.65625 L 247.46875 299.371094 C 247.371094 299.464844 247.320312 299.59375 247.320312 299.730469 C 247.320312 299.863281 247.375 299.996094 247.476562 300.089844 L 267.199219 319.460938 L 191.816406 369.988281 Z M 390.898438 387.335938 L 331.316406 298.445312 L 347.765625 271.140625 L 492.109375 358.125 L 401.753906 450.144531 L 359.710938 408.859375 L 390.761719 388.046875 C 390.871094 387.96875 390.949219 387.855469 390.976562 387.71875 C 391.003906 387.589844 390.976562 387.449219 390.898438 387.335938 Z M 389.765625 387.480469 L 358.960938 408.125 L 300.066406 350.300781 L 330.730469 299.410156 Z M 408.660156 564.230469 L 260.828125 475.136719 L 308.625 443.101562 L 435.851562 521.414062 Z M 436.726562 521.949219 L 472.273438 543.828125 L 445.898438 586.675781 L 409.535156 564.761719 Z M 259.859375 474.550781 L 234.425781 459.226562 L 261.589844 414.144531 L 307.671875 442.511719 Z M 308.605469 441.878906 L 262.121094 413.265625 L 299.523438 351.195312 L 358.09375 408.710938 Z M 299.316406 349.558594 L 268.816406 319.609375 L 320.878906 284.714844 L 330.101562 298.476562 Z M 298.769531 350.460938 L 261.25 412.726562 L 192.773438 370.578125 L 267.945312 320.191406 Z M 124.761719 416.171875 L 191.839844 371.203125 L 260.71875 413.605469 L 233.285156 459.128906 C 233.136719 459.375 233.214844 459.691406 233.453125 459.835938 L 258.921875 475.179688 L 227.070312 496.53125 L 185.179688 437.28125 C 185.101562 437.171875 184.984375 437.09375 184.84375 437.070312 C 184.714844 437.050781 184.574219 437.078125 184.464844 437.160156 L 153.503906 459.054688 Z M 226.21875 497.101562 L 193.640625 518.941406 L 154.070312 459.90625 L 184.640625 438.289062 Z M 72.976562 571.460938 L 31.984375 546.230469 L 153.234375 460.496094 L 193.078125 519.933594 C 193.175781 520.078125 193.339844 520.160156 193.503906 520.160156 C 193.601562 520.160156 193.699219 520.136719 193.785156 520.074219 L 226.808594 497.941406 L 258.195312 542.320312 L 195.46875 586.671875 L 101.265625 527.429688 C 101.148438 527.359375 101.011719 527.335938 100.878906 527.363281 C 100.746094 527.394531 100.628906 527.480469 100.558594 527.59375 Z M 149.953125 618.851562 L 73.84375 572 L 101.15625 528.570312 L 194.566406 587.308594 Z M 188.980469 642.871094 L 150.90625 619.433594 L 195.5 587.898438 L 215.601562 600.539062 Z M 350.210938 742.121094 L 259.324219 686.175781 L 322.695312 652.21875 L 361.25 724.179688 Z M 361.875 723.171875 L 323.359375 651.285156 C 323.226562 651.035156 322.914062 650.941406 322.664062 651.074219 L 258.316406 685.554688 L 189.851562 643.410156 L 216.738281 600.648438 C 216.816406 600.535156 216.835938 600.398438 216.804688 600.265625 C 216.773438 600.136719 216.695312 600.019531 216.578125 599.945312 L 196.40625 587.261719 L 259.199219 542.859375 C 259.433594 542.695312 259.488281 542.375 259.324219 542.144531 L 227.660156 497.363281 L 259.890625 475.765625 L 408.109375 565.09375 L 377.234375 613.714844 C 377.164062 613.828125 377.140625 613.96875 377.171875 614.101562 C 377.199219 614.234375 377.28125 614.351562 377.394531 614.425781 L 414.363281 637.898438 Z M 414.90625 637.03125 L 378.375 613.835938 L 408.988281 565.625 L 445.359375 587.546875 Z M 489.023438 684.09375 L 415.765625 637.574219 L 446.238281 588.074219 L 510.023438 626.519531 Z M 519.960938 703.734375 L 489.910156 684.660156 L 510.921875 627.054688 L 552.675781 652.21875 Z M 553.21875 651.355469 L 511.28125 626.074219 L 541.09375 544.320312 L 606.128906 568.039062 Z M 589.203125 673.039062 L 554.101562 651.886719 L 607.121094 568.398438 L 644.136719 581.898438 Z M 702.554688 484.953125 L 644.671875 581.003906 L 607.679688 567.515625 L 671.859375 466.453125 Z M 552.289062 339.964844 L 693.878906 429.875 L 671.53125 465.058594 L 527.839844 378.464844 Z M 527.289062 379.328125 L 670.980469 465.925781 L 606.695312 567.15625 L 540.96875 543.183594 C 540.703125 543.085938 540.410156 543.226562 540.308594 543.488281 L 510.386719 625.535156 L 446.78125 587.203125 L 473.414062 543.933594 C 473.484375 543.816406 473.511719 543.679688 473.476562 543.546875 C 473.445312 543.414062 473.359375 543.300781 473.246094 543.230469 L 437.269531 521.085938 Z M 526.414062 378.800781 L 436.398438 520.550781 L 309.566406 442.46875 L 358.839844 409.441406 L 401.40625 451.234375 C 401.503906 451.335938 401.636719 451.378906 401.765625 451.378906 C 401.894531 451.378906 402.03125 451.328125 402.128906 451.226562 L 493.011719 358.671875 Z M 492.84375 357.375 L 347.859375 270 C 347.746094 269.929688 347.605469 269.910156 347.46875 269.941406 C 347.339844 269.976562 347.226562 270.054688 347.15625 270.175781 L 330.683594 297.503906 L 321.445312 283.71875 C 321.285156 283.484375 320.964844 283.421875 320.730469 283.578125 L 268.070312 318.878906 L 248.554688 299.71875 L 351.773438 194.601562 L 377.214844 242.085938 C 377.308594 242.253906 377.484375 242.355469 377.671875 242.355469 C 377.75 242.355469 377.835938 242.335938 377.910156 242.296875 L 484.511719 185.183594 C 484.628906 185.121094 484.71875 185.011719 484.761719 184.878906 C 484.796875 184.753906 484.78125 184.609375 484.71875 184.496094 L 441.296875 103.441406 L 453.78125 90.726562 L 577.789062 212.488281 L 528.324219 254.671875 C 528.105469 254.855469 528.078125 255.179688 528.265625 255.394531 L 558.34375 290.675781 Z M 529.375 255.121094 L 578.523438 213.210938 L 606.96875 241.144531 L 559.066406 289.941406 Z M 675.449219 257.046875 L 591.820312 328.355469 L 559.730469 290.71875 L 608.066406 241.5 C 608.261719 241.300781 608.253906 240.976562 608.054688 240.773438 L 579.304688 212.546875 L 599.230469 195.554688 Z M 599.214844 194.226562 L 522.085938 132 L 553.066406 93.601562 L 642.566406 126.238281 C 642.621094 126.265625 642.679688 126.269531 642.738281 126.269531 C 642.949219 126.269531 643.144531 126.144531 643.21875 125.933594 L 668.179688 57.5 L 715.136719 95.378906 L 599.214844 194.226562 " fill-opacity="1" fill-rule="nonzero"/><path fill="#545861" d="M 743.179688 512.503906 L 768 527.785156 L 768 526.578125 L 744.148438 511.898438 L 768 473.160156 L 768 471.210938 L 743.015625 511.800781 C 742.863281 512.039062 742.941406 512.355469 743.179688 512.503906 " fill-opacity="1" fill-rule="nonzero"/></svg>