<svg xmlns="http://www.w3.org/2000/svg" xmlns:xlink="http://www.w3.org/1999/xlink" width="1024" zoomAndPan="magnify" viewBox="0 0 768 767.999994" height="1024" preserveAspectRatio="xMidYMid meet" version="1.0"><path fill="#46cc6b" d="M 767.984375 384.125 C 767.984375 596.0625 596.167969 767.878906 384.230469 767.878906 C 370.273438 767.898438 356.359375 767.15625 342.484375 765.652344 C 328.609375 764.144531 314.855469 761.886719 301.230469 758.878906 C 287.601562 755.867188 274.179688 752.121094 260.960938 747.640625 C 247.742188 743.160156 234.808594 737.972656 222.160156 732.074219 C 214.546875 728.515625 206.703125 725.578125 198.625 723.261719 C 190.550781 720.945312 182.34375 719.273438 174 718.253906 C 165.660156 717.234375 157.292969 716.875 148.894531 717.179688 C 140.5 717.484375 132.179688 718.441406 123.933594 720.0625 L 64.023438 731.859375 C 38.640625 736.855469 18.867188 710.097656 31.09375 687.296875 C 54.78125 643.140625 56.675781 590.351562 35.660156 544.859375 C 29.898438 532.371094 24.820312 519.605469 20.433594 506.566406 C 16.050781 493.53125 12.378906 480.292969 9.417969 466.859375 C 6.460938 453.425781 4.238281 439.871094 2.742188 426.195312 C 1.25 412.519531 0.496094 398.804688 0.480469 385.050781 C -0.0195312 172.917969 171.53125 0.683594 383.664062 0.375 C 595.859375 0.0664062 767.984375 172 767.984375 384.125 Z M 767.984375 384.125 " fill-opacity="1" fill-rule="nonzero"/><path fill="#ffffff" d="M 712.722656 384.125 C 712.722656 389.503906 712.59375 394.875 712.328125 400.246094 C 712.066406 405.613281 711.667969 410.972656 711.144531 416.324219 C 710.617188 421.675781 709.957031 427.007812 709.167969 432.328125 C 708.378906 437.644531 707.460938 442.9375 706.414062 448.210938 C 705.363281 453.484375 704.1875 458.730469 702.878906 463.945312 C 701.574219 469.160156 700.140625 474.339844 698.578125 479.484375 C 697.019531 484.628906 695.332031 489.730469 693.523438 494.792969 C 691.710938 499.855469 689.777344 504.867188 687.71875 509.835938 C 685.660156 514.800781 683.484375 519.714844 681.1875 524.574219 C 678.886719 529.433594 676.46875 534.234375 673.9375 538.976562 C 671.402344 543.71875 668.753906 548.394531 665.988281 553.003906 C 663.226562 557.617188 660.351562 562.15625 657.363281 566.628906 C 654.375 571.097656 651.28125 575.492188 648.078125 579.808594 C 644.878906 584.128906 641.570312 588.363281 638.160156 592.519531 C 634.75 596.675781 631.238281 600.746094 627.628906 604.730469 C 624.019531 608.710938 620.3125 612.605469 616.511719 616.40625 C 612.710938 620.207031 608.816406 623.914062 604.832031 627.523438 C 600.851562 631.132812 596.78125 634.644531 592.625 638.054688 C 588.46875 641.464844 584.234375 644.773438 579.914062 647.972656 C 575.597656 651.175781 571.203125 654.269531 566.730469 657.257812 C 562.261719 660.246094 557.722656 663.121094 553.109375 665.882812 C 548.5 668.648438 543.824219 671.296875 539.082031 673.832031 C 534.339844 676.367188 529.539062 678.78125 524.679688 681.082031 C 519.820312 683.378906 514.90625 685.558594 509.941406 687.613281 C 504.972656 689.671875 499.960938 691.605469 494.898438 693.417969 C 489.835938 695.226562 484.730469 696.914062 479.589844 698.472656 C 474.445312 700.035156 469.261719 701.46875 464.046875 702.773438 C 458.832031 704.082031 453.589844 705.257812 448.316406 706.308594 C 443.042969 707.355469 437.75 708.273438 432.429688 709.0625 C 427.113281 709.851562 421.78125 710.511719 416.429688 711.039062 C 411.078125 711.566406 405.71875 711.960938 400.351562 712.222656 C 394.980469 712.488281 389.609375 712.621094 384.230469 712.621094 C 378.855469 712.621094 373.484375 712.488281 368.113281 712.222656 C 362.742188 711.960938 357.382812 711.5625 352.035156 711.039062 C 346.683594 710.511719 341.347656 709.851562 336.03125 709.0625 C 330.714844 708.273438 325.417969 707.355469 320.144531 706.308594 C 314.871094 705.257812 309.628906 704.082031 304.414062 702.773438 C 299.199219 701.46875 294.019531 700.035156 288.875 698.472656 C 283.730469 696.914062 278.628906 695.226562 273.566406 693.417969 C 268.503906 691.605469 263.488281 689.671875 258.523438 687.613281 C 253.554688 685.558594 248.640625 683.378906 243.78125 681.082031 C 238.921875 678.78125 234.121094 676.367188 229.378906 673.832031 C 224.640625 671.296875 219.964844 668.648438 215.351562 665.882812 C 210.742188 663.121094 206.199219 660.246094 201.730469 657.257812 C 197.261719 654.269531 192.867188 651.175781 188.546875 647.972656 C 184.230469 644.773438 179.992188 641.464844 175.835938 638.054688 C 171.683594 634.644531 167.613281 631.132812 163.628906 627.523438 C 159.644531 623.914062 155.753906 620.207031 151.953125 616.40625 C 148.148438 612.605469 144.445312 608.710938 140.835938 604.730469 C 137.222656 600.746094 133.714844 596.675781 130.304688 592.519531 C 126.890625 588.363281 123.585938 584.128906 120.382812 579.808594 C 117.179688 575.492188 114.085938 571.097656 111.097656 566.628906 C 108.113281 562.15625 105.238281 557.617188 102.472656 553.003906 C 99.710938 548.394531 97.0625 543.71875 94.527344 538.976562 C 91.992188 534.234375 89.574219 529.433594 87.277344 524.574219 C 84.980469 519.714844 82.800781 514.800781 80.742188 509.835938 C 78.6875 504.867188 76.75 499.855469 74.941406 494.792969 C 73.128906 489.730469 71.445312 484.628906 69.882812 479.484375 C 68.324219 474.339844 66.890625 469.160156 65.582031 463.945312 C 64.277344 458.730469 63.097656 453.484375 62.050781 448.210938 C 61 442.9375 60.082031 437.644531 59.292969 432.328125 C 58.503906 427.007812 57.847656 421.675781 57.320312 416.324219 C 56.792969 410.972656 56.398438 405.613281 56.132812 400.246094 C 55.871094 394.875 55.738281 389.503906 55.738281 384.125 C 55.738281 378.75 55.871094 373.378906 56.132812 368.007812 C 56.398438 362.636719 56.792969 357.277344 57.320312 351.929688 C 57.847656 346.578125 58.503906 341.242188 59.292969 335.925781 C 60.082031 330.609375 61 325.3125 62.050781 320.039062 C 63.097656 314.769531 64.277344 309.523438 65.582031 304.308594 C 66.890625 299.09375 68.324219 293.914062 69.882812 288.769531 C 71.445312 283.625 73.128906 278.523438 74.941406 273.460938 C 76.75 268.398438 78.6875 263.382812 80.742188 258.417969 C 82.800781 253.449219 84.980469 248.539062 87.277344 243.675781 C 89.574219 238.816406 91.992188 234.015625 94.527344 229.277344 C 97.0625 224.535156 99.710938 219.859375 102.472656 215.246094 C 105.238281 210.636719 108.113281 206.09375 111.097656 201.625 C 114.085938 197.15625 117.179688 192.761719 120.382812 188.441406 C 123.585938 184.125 126.890625 179.886719 130.304688 175.734375 C 133.714844 171.578125 137.222656 167.507812 140.835938 163.523438 C 144.445312 159.539062 148.148438 155.648438 151.953125 151.847656 C 155.753906 148.046875 159.644531 144.339844 163.628906 140.730469 C 167.613281 137.117188 171.683594 133.609375 175.835938 130.199219 C 179.992188 126.789062 184.230469 123.480469 188.546875 120.277344 C 192.867188 117.074219 197.261719 113.980469 201.730469 110.996094 C 206.199219 108.007812 210.742188 105.132812 215.351562 102.367188 C 219.964844 99.605469 224.640625 96.957031 229.382812 94.421875 C 234.121094 91.886719 238.921875 89.46875 243.78125 87.171875 C 248.640625 84.875 253.554688 82.695312 258.523438 80.636719 C 263.488281 78.582031 268.503906 76.648438 273.566406 74.835938 C 278.628906 73.023438 283.730469 71.339844 288.875 69.777344 C 294.019531 68.21875 299.199219 66.785156 304.414062 65.476562 C 309.628906 64.171875 314.871094 62.992188 320.144531 61.945312 C 325.417969 60.894531 330.714844 59.976562 336.03125 59.1875 C 341.347656 58.398438 346.683594 57.742188 352.035156 57.214844 C 357.382812 56.6875 362.742188 56.292969 368.113281 56.027344 C 373.484375 55.765625 378.855469 55.632812 384.230469 55.632812 C 389.609375 55.632812 394.980469 55.765625 400.351562 56.027344 C 405.71875 56.292969 411.078125 56.6875 416.429688 57.214844 C 421.78125 57.742188 427.113281 58.398438 432.429688 59.1875 C 437.75 59.976562 443.042969 60.894531 448.316406 61.945312 C 453.589844 62.992188 458.832031 64.171875 464.046875 65.476562 C 469.261719 66.785156 474.445312 68.21875 479.589844 69.777344 C 484.730469 71.339844 489.835938 73.023438 494.898438 74.835938 C 499.960938 76.648438 504.972656 78.582031 509.941406 80.636719 C 514.90625 82.695312 519.820312 84.875 524.679688 87.171875 C 529.539062 89.46875 534.339844 91.886719 539.082031 94.421875 C 543.824219 96.957031 548.5 99.605469 553.109375 102.367188 C 557.722656 105.132812 562.261719 108.007812 566.730469 110.996094 C 571.203125 113.980469 575.597656 117.074219 579.914062 120.277344 C 584.234375 123.480469 588.46875 126.789062 592.625 130.199219 C 596.78125 133.609375 600.851562 137.117188 604.832031 140.730469 C 608.816406 144.339844 612.710938 148.046875 616.511719 151.847656 C 620.3125 155.648438 624.019531 159.539062 627.628906 163.523438 C 631.238281 167.507812 634.75 171.578125 638.160156 175.734375 C 641.570312 179.886719 644.878906 184.125 648.078125 188.441406 C 651.28125 192.761719 654.375 197.15625 657.363281 201.625 C 660.351562 206.09375 663.226562 210.636719 665.988281 215.246094 C 668.753906 219.859375 671.402344 224.535156 673.9375 229.277344 C 676.46875 234.015625 678.886719 238.816406 681.1875 243.675781 C 683.484375 248.539062 685.660156 253.449219 687.71875 258.417969 C 689.777344 263.382812 691.710938 268.398438 693.523438 273.460938 C 695.332031 278.523438 697.019531 283.625 698.578125 288.769531 C 700.140625 293.914062 701.574219 299.09375 702.878906 304.308594 C 704.1875 309.523438 705.363281 314.769531 706.414062 320.039062 C 707.460938 325.3125 708.378906 330.609375 709.167969 335.925781 C 709.957031 341.246094 710.617188 346.578125 711.144531 351.929688 C 711.667969 357.277344 712.066406 362.636719 712.328125 368.007812 C 712.59375 373.378906 712.722656 378.75 712.722656 384.125 Z M 712.722656 384.125 " fill-opacity="1" fill-rule="nonzero"/><path fill="#46cc6b" d="M 654.066406 384.125 C 654.066406 388.542969 653.957031 392.957031 653.738281 397.367188 C 653.523438 401.777344 653.199219 406.179688 652.765625 410.574219 C 652.332031 414.96875 651.792969 419.351562 651.144531 423.71875 C 650.496094 428.085938 649.742188 432.4375 648.878906 436.769531 C 648.019531 441.097656 647.050781 445.40625 645.976562 449.691406 C 644.90625 453.972656 643.726562 458.230469 642.445312 462.453125 C 641.164062 466.679688 639.78125 470.871094 638.292969 475.03125 C 636.804688 479.1875 635.214844 483.308594 633.523438 487.386719 C 631.835938 491.46875 630.046875 495.503906 628.15625 499.496094 C 626.269531 503.488281 624.285156 507.429688 622.203125 511.324219 C 620.121094 515.21875 617.945312 519.0625 615.675781 522.847656 C 613.40625 526.636719 611.042969 530.367188 608.589844 534.039062 C 606.136719 537.710938 603.59375 541.320312 600.964844 544.867188 C 598.332031 548.414062 595.617188 551.894531 592.816406 555.308594 C 590.015625 558.71875 587.128906 562.0625 584.164062 565.335938 C 581.199219 568.609375 578.15625 571.804688 575.03125 574.925781 C 571.910156 578.050781 568.710938 581.09375 565.441406 584.058594 C 562.167969 587.027344 558.824219 589.910156 555.410156 592.710938 C 552 595.511719 548.519531 598.226562 544.972656 600.859375 C 541.425781 603.488281 537.816406 606.03125 534.144531 608.484375 C 530.472656 610.9375 526.742188 613.300781 522.953125 615.570312 C 519.164062 617.839844 515.324219 620.015625 511.429688 622.097656 C 507.535156 624.179688 503.59375 626.164062 499.601562 628.054688 C 495.609375 629.941406 491.570312 631.730469 487.492188 633.417969 C 483.414062 635.109375 479.292969 636.699219 475.136719 638.1875 C 470.976562 639.675781 466.785156 641.058594 462.558594 642.339844 C 458.335938 643.621094 454.078125 644.800781 449.796875 645.875 C 445.511719 646.945312 441.203125 647.914062 436.875 648.773438 C 432.542969 649.636719 428.191406 650.390625 423.824219 651.039062 C 419.457031 651.6875 415.074219 652.226562 410.679688 652.660156 C 406.285156 653.09375 401.882812 653.417969 397.472656 653.632812 C 393.0625 653.851562 388.648438 653.960938 384.230469 653.960938 C 379.816406 653.960938 375.402344 653.851562 370.992188 653.632812 C 366.582031 653.417969 362.179688 653.09375 357.78125 652.660156 C 353.386719 652.226562 349.007812 651.6875 344.636719 651.039062 C 340.269531 650.390625 335.921875 649.636719 331.589844 648.773438 C 327.257812 647.914062 322.949219 646.945312 318.667969 645.875 C 314.382812 644.800781 310.128906 643.621094 305.902344 642.339844 C 301.675781 641.058594 297.484375 639.675781 293.328125 638.1875 C 289.167969 636.699219 285.050781 635.109375 280.96875 633.417969 C 276.890625 631.730469 272.855469 629.941406 268.863281 628.054688 C 264.871094 626.164062 260.925781 624.179688 257.03125 622.097656 C 253.136719 620.015625 249.296875 617.839844 245.507812 615.570312 C 241.722656 613.300781 237.992188 610.9375 234.320312 608.484375 C 230.648438 606.03125 227.039062 603.488281 223.492188 600.859375 C 219.945312 598.226562 216.464844 595.511719 213.050781 592.710938 C 209.636719 589.910156 206.292969 587.027344 203.023438 584.058594 C 199.75 581.09375 196.554688 578.050781 193.429688 574.925781 C 190.308594 571.804688 187.261719 568.609375 184.296875 565.335938 C 181.332031 562.0625 178.449219 558.71875 175.648438 555.308594 C 172.847656 551.894531 170.128906 548.414062 167.5 544.867188 C 164.867188 541.320312 162.328125 537.710938 159.871094 534.039062 C 157.417969 530.367188 155.058594 526.636719 152.789062 522.847656 C 150.515625 519.0625 148.339844 515.21875 146.257812 511.324219 C 144.179688 507.429688 142.191406 503.488281 140.304688 499.496094 C 138.417969 495.503906 136.628906 491.46875 134.9375 487.386719 C 133.246094 483.308594 131.660156 479.1875 130.171875 475.03125 C 128.683594 470.871094 127.296875 466.679688 126.015625 462.453125 C 124.734375 458.230469 123.558594 453.972656 122.484375 449.691406 C 121.410156 445.40625 120.445312 441.097656 119.582031 436.769531 C 118.722656 432.4375 117.964844 428.085938 117.320312 423.71875 C 116.671875 419.351562 116.128906 414.96875 115.695312 410.574219 C 115.265625 406.179688 114.941406 401.777344 114.722656 397.367188 C 114.507812 392.957031 114.398438 388.542969 114.398438 384.125 C 114.398438 379.710938 114.507812 375.296875 114.722656 370.886719 C 114.941406 366.476562 115.265625 362.074219 115.695312 357.679688 C 116.128906 353.28125 116.671875 348.902344 117.320312 344.535156 C 117.964844 340.164062 118.722656 335.816406 119.582031 331.484375 C 120.445312 327.152344 121.410156 322.84375 122.484375 318.5625 C 123.558594 314.277344 124.734375 310.023438 126.015625 305.796875 C 127.296875 301.570312 128.683594 297.378906 130.171875 293.222656 C 131.660156 289.0625 133.246094 284.945312 134.9375 280.867188 C 136.628906 276.785156 138.417969 272.75 140.304688 268.757812 C 142.191406 264.765625 144.179688 260.820312 146.257812 256.925781 C 148.339844 253.03125 150.515625 249.191406 152.789062 245.402344 C 155.058594 241.617188 157.417969 237.886719 159.871094 234.214844 C 162.328125 230.542969 164.867188 226.933594 167.5 223.386719 C 170.128906 219.839844 172.847656 216.359375 175.648438 212.945312 C 178.449219 209.53125 181.332031 206.1875 184.296875 202.917969 C 187.261719 199.644531 190.308594 196.449219 193.429688 193.324219 C 196.554688 190.203125 199.75 187.160156 203.023438 184.191406 C 206.292969 181.226562 209.636719 178.34375 213.050781 175.542969 C 216.464844 172.742188 219.945312 170.023438 223.492188 167.394531 C 227.039062 164.761719 230.648438 162.222656 234.320312 159.769531 C 237.992188 157.3125 241.722656 154.953125 245.507812 152.683594 C 249.296875 150.410156 253.136719 148.234375 257.03125 146.152344 C 260.925781 144.074219 264.871094 142.085938 268.863281 140.199219 C 272.855469 138.3125 276.890625 136.523438 280.96875 134.832031 C 285.050781 133.140625 289.167969 131.554688 293.328125 130.066406 C 297.484375 128.578125 301.675781 127.195312 305.902344 125.910156 C 310.128906 124.628906 314.382812 123.453125 318.667969 122.378906 C 322.949219 121.304688 327.257812 120.339844 331.589844 119.476562 C 335.921875 118.617188 340.269531 117.859375 344.636719 117.214844 C 349.007812 116.566406 353.386719 116.023438 357.78125 115.59375 C 362.179688 115.160156 366.582031 114.835938 370.992188 114.617188 C 375.402344 114.402344 379.816406 114.292969 384.230469 114.292969 C 388.648438 114.292969 393.0625 114.402344 397.472656 114.617188 C 401.882812 114.835938 406.285156 115.160156 410.679688 115.59375 C 415.074219 116.023438 419.457031 116.566406 423.824219 117.214844 C 428.191406 117.859375 432.542969 118.617188 436.875 119.476562 C 441.203125 120.339844 445.511719 121.304688 449.796875 122.378906 C 454.078125 123.453125 458.335938 124.628906 462.558594 125.910156 C 466.785156 127.195312 470.976562 128.578125 475.136719 130.066406 C 479.292969 131.554688 483.414062 133.140625 487.492188 134.832031 C 491.570312 136.523438 495.609375 138.3125 499.601562 140.199219 C 503.59375 142.085938 507.535156 144.074219 511.429688 146.152344 C 515.324219 148.234375 519.164062 150.410156 522.953125 152.683594 C 526.742188 154.953125 530.472656 157.3125 534.144531 159.769531 C 537.816406 162.222656 541.425781 164.761719 544.972656 167.394531 C 548.519531 170.023438 552 172.742188 555.410156 175.542969 C 558.824219 178.34375 562.167969 181.226562 565.441406 184.191406 C 568.710938 187.160156 571.910156 190.203125 575.03125 193.324219 C 578.15625 196.449219 581.199219 199.644531 584.164062 202.917969 C 587.128906 206.1875 590.015625 209.53125 592.816406 212.945312 C 595.617188 216.359375 598.332031 219.839844 600.964844 223.386719 C 603.59375 226.933594 606.136719 230.542969 608.589844 234.214844 C 611.042969 237.886719 613.40625 241.617188 615.675781 245.402344 C 617.945312 249.191406 620.121094 253.03125 622.203125 256.925781 C 624.285156 260.820312 626.269531 264.765625 628.15625 268.757812 C 630.046875 272.75 631.835938 276.785156 633.523438 280.867188 C 635.214844 284.945312 636.804688 289.0625 638.292969 293.222656 C 639.78125 297.378906 641.164062 301.570312 642.445312 305.796875 C 643.726562 310.023438 644.90625 314.277344 645.976562 318.5625 C 647.050781 322.84375 648.019531 327.152344 648.878906 331.484375 C 649.742188 335.816406 650.496094 340.164062 651.144531 344.535156 C 651.792969 348.902344 652.332031 353.28125 652.765625 357.679688 C 653.199219 362.074219 653.523438 366.476562 653.738281 370.886719 C 653.957031 375.296875 654.066406 379.710938 654.066406 384.125 Z M 654.066406 384.125 " fill-opacity="1" fill-rule="nonzero"/><path fill="#ffffff" d="M 344.6875 323.5625 L 331.054688 282.832031 C 330.664062 281.675781 330.21875 280.539062 329.710938 279.425781 C 329.203125 278.3125 328.636719 277.230469 328.015625 276.175781 C 327.394531 275.125 326.71875 274.105469 325.988281 273.125 C 325.257812 272.144531 324.480469 271.203125 323.652344 270.304688 C 322.824219 269.402344 321.953125 268.550781 321.035156 267.742188 C 320.117188 266.933594 319.15625 266.175781 318.160156 265.46875 C 317.160156 264.761719 316.128906 264.109375 315.0625 263.511719 C 313.996094 262.914062 312.902344 262.375 311.777344 261.890625 C 310.652344 261.40625 309.507812 260.984375 308.339844 260.621094 C 307.171875 260.261719 305.988281 259.960938 304.789062 259.722656 C 303.589844 259.484375 302.378906 259.3125 301.164062 259.203125 C 299.945312 259.09375 298.722656 259.046875 297.5 259.066406 C 296.277344 259.082031 295.058594 259.164062 293.847656 259.3125 C 292.632812 259.460938 291.429688 259.667969 290.238281 259.941406 C 289.046875 260.214844 287.871094 260.550781 286.714844 260.949219 C 285.558594 261.347656 284.425781 261.800781 283.316406 262.320312 L 261.324219 272.566406 C 260.433594 272.980469 259.566406 273.433594 258.714844 273.917969 C 257.867188 274.40625 257.039062 274.929688 256.234375 275.488281 C 255.429688 276.042969 254.648438 276.632812 253.890625 277.257812 C 253.136719 277.878906 252.40625 278.535156 251.707031 279.21875 C 251.003906 279.902344 250.335938 280.617188 249.695312 281.355469 C 249.054688 282.097656 248.445312 282.863281 247.871094 283.65625 C 247.292969 284.449219 246.75 285.265625 246.246094 286.101562 C 245.738281 286.941406 245.265625 287.796875 244.832031 288.675781 C 244.394531 289.554688 244 290.449219 243.640625 291.359375 C 243.28125 292.269531 242.960938 293.195312 242.675781 294.132812 C 242.394531 295.070312 242.15625 296.019531 241.953125 296.976562 C 241.75 297.9375 241.589844 298.902344 241.46875 299.875 C 241.351562 300.847656 241.269531 301.820312 241.234375 302.800781 C 241.195312 303.78125 241.199219 304.757812 241.242188 305.738281 C 241.289062 306.714844 241.371094 307.691406 241.5 308.660156 C 241.625 309.632812 241.792969 310.597656 242 311.554688 C 255.765625 375.214844 306.367188 527.648438 477.210938 546.652344 C 478.898438 546.839844 480.589844 546.90625 482.285156 546.847656 C 483.980469 546.789062 485.664062 546.605469 487.332031 546.300781 C 489 545.996094 490.640625 545.570312 492.246094 545.027344 C 493.855469 544.484375 495.414062 543.824219 496.925781 543.054688 C 498.433594 542.28125 499.882812 541.402344 501.265625 540.421875 C 502.648438 539.4375 503.953125 538.359375 505.175781 537.183594 C 506.402344 536.011719 507.535156 534.753906 508.578125 533.414062 C 509.621094 532.078125 510.558594 530.667969 511.394531 529.191406 L 522.734375 509.15625 C 523.296875 508.160156 523.808594 507.144531 524.269531 506.101562 C 524.730469 505.058594 525.140625 503.996094 525.5 502.910156 C 525.855469 501.828125 526.160156 500.730469 526.410156 499.617188 C 526.660156 498.503906 526.851562 497.382812 526.992188 496.25 C 527.132812 495.117188 527.214844 493.980469 527.242188 492.839844 C 527.269531 491.699219 527.242188 490.5625 527.15625 489.425781 C 527.074219 488.285156 526.933594 487.15625 526.738281 486.03125 C 526.542969 484.90625 526.292969 483.796875 525.988281 482.695312 C 525.683594 481.597656 525.324219 480.515625 524.914062 479.453125 C 524.503906 478.386719 524.042969 477.347656 523.527344 476.328125 C 523.015625 475.308594 522.453125 474.316406 521.84375 473.355469 C 521.230469 472.390625 520.574219 471.460938 519.875 470.5625 C 519.171875 469.660156 518.425781 468.800781 517.640625 467.972656 C 516.855469 467.148438 516.027344 466.363281 515.164062 465.617188 C 514.300781 464.871094 513.402344 464.171875 512.46875 463.515625 C 511.535156 462.859375 510.574219 462.25 509.582031 461.6875 L 509.34375 461.554688 L 478.894531 444.632812 C 477.257812 443.722656 475.558594 442.949219 473.796875 442.3125 C 472.03125 441.675781 470.230469 441.1875 468.390625 440.839844 C 466.546875 440.496094 464.691406 440.300781 462.816406 440.253906 C 460.945312 440.210938 459.082031 440.316406 457.222656 440.570312 C 455.367188 440.824219 453.542969 441.226562 451.753906 441.777344 C 449.960938 442.328125 448.226562 443.019531 446.546875 443.847656 C 444.867188 444.675781 443.265625 445.636719 441.742188 446.726562 C 440.214844 447.8125 438.789062 449.015625 437.457031 450.335938 C 436.136719 451.648438 434.71875 452.847656 433.207031 453.933594 C 431.691406 455.015625 430.101562 455.972656 428.433594 456.800781 C 426.765625 457.632812 425.042969 458.324219 423.265625 458.875 C 421.488281 459.425781 419.675781 459.835938 417.832031 460.09375 C 415.988281 460.355469 414.136719 460.46875 412.273438 460.433594 C 410.410156 460.398438 408.566406 460.210938 406.734375 459.878906 C 404.902344 459.546875 403.105469 459.070312 401.351562 458.449219 C 399.597656 457.824219 397.902344 457.070312 396.269531 456.175781 C 377.753906 446.003906 352.375 428.65625 334.585938 403.027344 C 333.589844 401.597656 332.707031 400.101562 331.933594 398.542969 C 331.160156 396.980469 330.507812 395.371094 329.976562 393.714844 C 329.445312 392.054688 329.039062 390.367188 328.761719 388.648438 C 328.480469 386.929688 328.332031 385.199219 328.308594 383.457031 C 328.289062 381.71875 328.398438 379.984375 328.636719 378.257812 C 328.875 376.535156 329.242188 374.835938 329.734375 373.164062 C 330.226562 371.496094 330.839844 369.871094 331.574219 368.292969 C 332.308594 366.714844 333.160156 365.199219 334.121094 363.746094 L 340.667969 353.90625 C 342.136719 351.695312 343.335938 349.351562 344.269531 346.867188 C 345.199219 344.382812 345.839844 341.828125 346.191406 339.199219 C 346.539062 336.570312 346.585938 333.933594 346.335938 331.292969 C 346.082031 328.65625 345.535156 326.078125 344.691406 323.5625 Z M 344.6875 323.5625 " fill-opacity="1" fill-rule="nonzero"/></svg>